<?xml version="1.0" encoding="iso-8859-1"?>
<!-- Generator: Adobe Illustrator 19.0.0, SVG Export Plug-In . SVG Version: 6.00 Build 0)  -->
<svg version="1.1" id="Layer_1" xmlns="http://www.w3.org/2000/svg" xmlns:xlink="http://www.w3.org/1999/xlink" x="0px" y="0px"
	 viewBox="0 0 512.001 512.001" style="enable-background:new 0 0 512.001 512.001;" xml:space="preserve">
<path style="fill:#B4E66E;" d="M266.669,179.873c-5.929-5.355-15.122-4.99-21.361,0.002l-26.882,21.503l-22.052-27.555
	c-3.162-3.954-7.817-6.012-12.515-6.016h-0.002c-8.854,0-16.032-7.178-16.032-16.032v-8.016h-32.064v11.079
	c0,3.035-1.715,5.811-4.431,7.169l-18.771,9.386c-5.432,2.714-8.863,8.267-8.863,14.339v76.822c0,6.223,1.448,12.36,4.231,17.925
	l7.57,15.14c2.783,5.565,4.231,11.701,4.231,17.924v108.776l72.145-51.854v-150.95l6.513,8.142
	c4.016,5.026,9.746,8.181,16.138,8.893c1.579,0.178,3.157,0.188,4.715,0.072c4.793-0.356,9.334-2.301,13.087-5.303l33.693-26.952
	C273.618,198.29,274.219,186.694,266.669,179.873z"/>
<polygon style="fill:#FF507D;" points="376.243,23.516 256.001,23.516 256.001,87.645 376.243,87.645 360.21,55.581 "/>
<rect x="256" y="23.516" style="fill:#D23C69;" width="24.05" height="64.13"/>
<path style="fill:#A0D755;" d="M115.495,295.618c1.352,2.703,2.375,5.545,3.084,8.462c2.826,0,5.915,0,9.163,0V201.816
	c0-6.378-2.533-12.496-7.043-17.005l-11.268-11.268c-3.557,3.005-5.737,7.406-5.737,12.188v76.822c0,6.223,1.448,12.36,4.231,17.925
	L115.495,295.618z"/>
<rect x="119.73" y="288.05" style="fill:#7F8499;" width="72.14" height="144.29"/>
<polygon style="fill:#B4E66E;" points="504.501,504.484 256.001,328.128 7.501,504.484 "/>
<path style="fill:#A0D755;" d="M119.727,504.484c0,0,143.388-166.744,145.456-167.728l-9.182-8.627L7.501,504.484H119.727z"/>
<path style="fill:#E6AF78;" d="M151.791,175.823L151.791,175.823c-8.854,0-16.032-7.178-16.032-16.032v-24.048h32.064v24.048
	C167.823,168.645,160.646,175.823,151.791,175.823z"/>
<path style="fill:#F0C087;" d="M151.791,143.758L151.791,143.758c-17.709,0-32.065-14.356-32.065-32.064V95.661
	c0-13.282,10.767-24.048,24.048-24.048h16.032c13.282,0,24.048,10.767,24.048,24.048v16.032
	C183.856,129.402,169.5,143.758,151.791,143.758z"/>
<path style="fill:#E6AF78;" d="M143.775,111.694V95.661c0-11.909,8.677-21.727,20.04-23.644c-1.31-0.221-2.635-0.404-4.008-0.404
	h-16.032c-13.282,0-24.048,10.767-24.048,24.048v16.032c0,17.708,14.356,32.064,32.064,32.064c4.259,0,8.306-0.87,12.024-2.378
	C152.074,136.619,143.775,125.143,143.775,111.694z"/>
<path style="fill:#694B4B;" d="M119.727,95.661c0,0,24.048,8.016,64.129,8.016v-8.016c0-13.282-10.767-24.048-24.048-24.048h-16.032
	C130.493,71.613,119.727,82.38,119.727,95.661L119.727,95.661z"/>
<path style="fill:#5A4146;" d="M143.775,95.661c0-11.909,8.677-21.727,20.04-23.644c-1.31-0.221-2.635-0.404-4.008-0.404h-16.032
	c-13.282,0-24.048,10.767-24.048,24.048c0,0,8.622,2.851,24.048,5.153L143.775,95.661L143.775,95.661z"/>
<path style="fill:#A0D755;" d="M245.307,179.875l-26.882,21.503l-22.052-27.555c-1.276-1.595-2.836-2.795-4.501-3.761v49.454
	l6.513,8.142c4.016,5.026,9.746,8.181,16.138,8.893c1.579,0.178,3.157,0.188,4.715,0.072c4.793-0.356,9.334-2.301,13.087-5.303
	l33.693-26.952c7.601-6.079,8.202-17.674,0.652-24.496C260.74,174.517,251.546,174.883,245.307,179.875z"/>
<path d="M508.841,498.384l-245.34-174.113v-108.27l7.2-5.759c5.399-4.316,8.615-10.76,8.823-17.676
	c0.208-6.911-2.645-13.561-7.827-18.242c-2.398-2.166-5.204-3.704-8.196-4.654V31.032h100.606l-10.605,21.21
	c-1.056,2.112-1.056,4.597,0,6.709l10.605,21.21h-76.042c-4.142,0-7.5,3.357-7.5,7.5s3.358,7.5,7.5,7.5h88.177
	c2.599,0,5.013-1.346,6.38-3.557c1.367-2.212,1.491-4.973,0.328-7.298l-14.355-28.71l14.355-28.71
	c1.163-2.325,1.039-5.086-0.328-7.298c-1.367-2.211-3.781-3.557-6.38-3.557H263.501V7.5c0-4.143-3.358-7.5-7.5-7.5
	c-4.142,0-7.5,3.357-7.5,7.5v162.289c-2.793,0.913-5.473,2.321-7.878,4.245l-21.027,16.819l-17.365-21.698
	c-4.484-5.607-11.179-8.827-18.375-8.833c-4.705,0-8.532-3.827-8.532-8.532v-8.297c9.72-7.216,16.032-18.775,16.032-31.783V95.678
	c0-17.396-14.152-31.549-31.548-31.549h-16.032c-17.396,0-31.549,14.152-31.549,31.549v16.032c0,13.008,6.312,24.567,16.033,31.783
	v11.359c0,0.196-0.109,0.373-0.285,0.461l-18.771,9.386c-8.024,4.012-13.009,12.077-13.009,21.048v76.823
	c0,7.349,1.737,14.706,5.023,21.279l7.569,15.139c2.25,4.5,3.439,9.538,3.439,14.57v107.423L3.16,498.384
	c-3.377,2.397-4.173,7.079-1.775,10.457c2.397,3.378,7.079,4.172,10.457,1.775l244.159-173.274L500.16,510.616
	c1.318,0.936,2.833,1.385,4.334,1.385c2.348,0,4.66-1.1,6.123-3.16C513.014,505.463,512.219,500.781,508.841,498.384z
	 M248.501,324.271l-49.129,34.866V238.728c4.212,2.884,9.094,4.71,14.308,5.291c1.955,0.223,4.013,0.254,6.115,0.1
	c6.171-0.459,12.123-2.854,17.215-6.925l11.492-9.193v96.27H248.501z M127.226,95.678c0-9.125,7.424-16.549,16.549-16.549h16.032
	c9.125,0,16.548,7.424,16.548,16.549v16.032c0,13.545-11.02,24.564-24.564,24.564s-24.565-11.02-24.565-24.564V95.678z
	 M160.323,151.274v0.516c0,3.757,0.89,7.309,2.462,10.463l-10.63,10.631c-0.037,0.037-0.151,0.151-0.365,0.151
	c-0.213,0-0.327-0.114-0.365-0.152l-10.251-10.251c1.339-2.313,2.084-4.977,2.084-7.779v-3.578L160.323,151.274L160.323,151.274z
	 M122.203,292.279l-7.569-15.139c-2.25-4.5-3.439-9.538-3.439-14.57v-76.823c0-3.253,1.808-6.177,4.717-7.632l13.023-6.511
	l11.886,11.885c2.931,2.932,6.827,4.546,10.972,4.546s8.042-1.614,10.972-4.545l10.63-10.63c3.153,1.572,6.703,2.462,10.458,2.462
	c2.611,0.002,5.04,1.169,6.667,3.203l22.052,27.555c2.586,3.231,7.305,3.757,10.541,1.17l26.882-21.503
	c3.562-2.846,8.678-2.976,11.649-0.292c1.939,1.752,2.966,4.117,2.889,6.66c-0.076,2.511-1.241,4.848-3.199,6.413L227.64,225.48
	c-2.718,2.174-5.816,3.446-8.955,3.68c-1.171,0.087-2.288,0.072-3.331-0.047c-4.403-0.49-8.349-2.664-11.112-6.123l-6.513-8.143
	c-1.99-2.487-5.332-3.446-8.339-2.393c-3.006,1.054-5.018,3.892-5.018,7.077v150.251l-17.064,12.11v-69.779
	c0-4.143-3.358-7.5-7.5-7.5s-7.5,3.357-7.5,7.5v80.424l-25.081,17.8v-96.778C127.226,306.21,125.489,298.853,122.203,292.279z"/>
<path d="M373.293,442.269l-72.856-51.703c-3.377-2.398-8.06-1.603-10.457,1.775s-1.602,8.06,1.776,10.457l72.856,51.703
	c1.317,0.936,2.833,1.385,4.334,1.385c2.348,0,4.661-1.1,6.123-3.16C377.466,449.348,376.671,444.666,373.293,442.269z"/>
<path d="M276.359,373.478l-16.018-11.368c-3.377-2.396-8.06-1.603-10.457,1.775s-1.603,8.06,1.775,10.457l16.018,11.368
	c1.317,0.935,2.833,1.385,4.334,1.385c2.348,0,4.66-1.1,6.123-3.16C280.532,380.557,279.737,375.875,276.359,373.478z"/>
<g>
</g>
</svg>
